# xmcd CD database file generated by LOLA_Freedb v0.9beta0
# 
# Track frame offsets:
#      150
#      20967
#      45420
#      70339
#      81243
#      96996
#      106908
#      123893
#      139170
#      157408
#      179252
#      199915
#      219532
#      239332
# 
# Disc length: 3321 seconds
# 
# Revision: 0 
# Processed by: cddbd v1.5.2PL0 Copyright (c) Steve Scherf et al.
# Submitted via: LOLA_Freedb v0.9beta0
# 
DISCID=cf0cf70e
DTITLE=Michael Lonstar - What's This Country Thing
DYEAR=2008
DGENRE=
TTITLE0=Michael Lonstar - What's This Country Thing
TTITLE1=Michael Lonstar - High Noon Train
TTITLE2=Michael Lonstar - Face The Moon And Howl
TTITLE3=Michael Lonstar - Lament In D-Minor
TTITLE4=Michael Lonstar - Song For An Unwanted Woman
TTITLE5=Michael Lonstar - Walkin' On A Cold Water
TTITLE6=Michael Lonstar - I Ain't Runnin' Anymore
TTITLE7=Michael Lonstar - Have Time
TTITLE8=Michael Lonstar - A Dream From Now On
TTITLE9=Michael Lonstar - Good Ol' Times When Times Were Bad
TTITLE10=Michael Lonstar - Lords Of Leather And Chrome
TTITLE11=Michael Lonstar - A Long Haul
TTITLE12=Michael Lonstar with Suzie Candell - You And I
TTITLE13=Michael Lonstar - Sequoia Grove - Instrumental
EXTD=
EXTT0=
EXTT1=
EXTT2=
EXTT3=
EXTT4=
EXTT5=
EXTT6=
EXTT7=
EXTT8=
EXTT9=
EXTT10=
EXTT11=
EXTT12=
EXTT13=
PLAYORDER=
